<?xml version="1.0" standalone="no"?><!DOCTYPE svg PUBLIC "-//W3C//DTD SVG 1.1//EN" "http://www.w3.org/Graphics/SVG/1.1/DTD/svg11.dtd"><svg t="1605237574548" class="icon" viewBox="0 0 1206 1024" version="1.1" xmlns="http://www.w3.org/2000/svg" p-id="10724" xmlns:xlink="http://www.w3.org/1999/xlink" width="588.8671875" height="500"><defs><style type="text/css"></style></defs><path d="M1114.966864 91.038469a325.553663 325.553663 0 0 0-451.609796 0l-15.96711 15.60173a63.86844 63.86844 0 0 1-88.970053 0l-15.96711-15.60173a325.553663 325.553663 0 0 0-451.609795 0c-124.229232 121.269653-146.152037 430.23506 95.729584 678.839676a1065.594504 1065.594504 0 0 0 360.228234 242.795072 151.267359 151.267359 0 0 0 112.244765 0 1065.48489 1065.48489 0 0 0 360.228234-242.795072c241.91816-248.458464 219.849202-557.423871 95.729585-678.839676z m0 0" p-id="10725"></path></svg>