<svg t="1606980762034" class="icon" viewBox="0 0 1024 1024" version="1.1" xmlns="http://www.w3.org/2000/svg" p-id="8375" width="500" height="500"><path d="M849.454545 240.64a38.167273 38.167273 0 0 0-54.458181 53.992727A382.138182 382.138182 0 0 1 899.723636 558.545455a387.723636 387.723636 0 0 1-775.447272 0 397.963636 397.963636 0 0 1 104.727272-267.636364 38.632727 38.632727 0 0 0-54.458181-54.458182A476.16 476.16 0 0 0 46.545455 558.545455a465.454545 465.454545 0 0 0 930.90909 0 458.472727 458.472727 0 0 0-128-317.905455z" p-id="8376"></path><path d="M469.178182 31.185455l-162.909091 162.90909a38.167273 38.167273 0 0 0 54.458182 53.992728l135.912727-135.447273 135.447273 135.447273a38.167273 38.167273 0 0 0 54.458182-53.992728l-162.909091-162.90909a37.236364 37.236364 0 0 0-54.458182 0z" p-id="8377"></path><path d="M469.178182 263.912727l-162.909091 162.909091a38.167273 38.167273 0 0 0 54.458182 53.992727l135.912727-135.447272 135.447273 135.447272a38.167273 38.167273 0 0 0 54.458182-53.992727l-162.909091-162.909091a37.236364 37.236364 0 0 0-54.458182 0z" p-id="8378"></path></svg>