<svg t="1606887610871" class="icon" viewBox="0 0 1024 1024" version="1.1" xmlns="http://www.w3.org/2000/svg" p-id="6799" width="500" height="500"><path d="M538.006304 80.807421c-231.93849 0-420.644339 175.86438-420.644339 392.026558 0 45.830815 8.438183 90.775446 25.040303 133.611044 6.29845 16.08228 24.337291 24.031323 40.541345 17.85567 16.112979-6.26775 24.092721-24.39869 17.85567-40.541345-13.81975-35.557844-20.821211-72.859401-20.821211-110.924345 0-181.64299 160.607908-329.409428 358.02721-329.409428s358.02721 147.766438 358.02721 329.409428c0 181.612291-160.607908 329.379753-358.333178 329.379753-31.583323-0.367367-67.325361-6.329149-105.390305-13.361309C318.78751 767.969812 177.593767 741.828432 71.01131 893.90606c-9.905604 14.186094-6.481621 33.69338 7.673773 43.629683 5.472642 3.822049 11.740392 5.655813 17.946744 5.655813 9.875928 0 19.567661-4.647857 25.682939-13.33061 83.468017-119.148657 187.94144-99.825566 298.621215-79.432097 40.052205 7.398504 77.964676 14.400988 114.226554 14.400988 232.42763 1.528819 423.488107-174.978197 423.488107-391.995859C958.650643 256.671801 769.944793 80.807421 538.006304 80.807421z" p-id="6800"></path><path d="M732.147956 469.880717m-64.426335 0a62.959 62.959 0 1 0 128.85267 0 62.959 62.959 0 1 0-128.85267 0Z" p-id="6801"></path><path d="M539.353998 469.880717m-64.426335 0a62.959 62.959 0 1 0 128.85267 0 62.959 62.959 0 1 0-128.85267 0Z" p-id="6802"></path><path d="M346.56004 469.880717m-64.426335 0a62.959 62.959 0 1 0 128.85267 0 62.959 62.959 0 1 0-128.85267 0Z" p-id="6803"></path></svg>