<svg t="1607996696014" class="icon" viewBox="0 0 1024 1024" version="1.1" xmlns="http://www.w3.org/2000/svg" p-id="3235" width="500" height="500"><path d="M861.448322 233.721089 732.883201 233.721089 732.883201 97.54871c0-15.377222-12.443403-27.821649-27.821649-27.821649s-27.821649 12.443403-27.821649 27.821649l0 136.171356L348.604094 233.720066 348.604094 94.750991c0-15.377222-12.443403-27.821649-27.821649-27.821649s-27.821649 12.443403-27.821649 27.821649l0 138.970098L162.550655 233.721089c-52.762691 0-95.689363 42.926672-95.689363 95.690386L66.861292 861.381295c0 52.762691 42.926672 95.689363 95.689363 95.689363l698.897667 0c52.762691 0 95.689363-42.926672 95.689363-95.689363L957.137685 329.410452C957.137685 276.647761 914.211013 233.721089 861.448322 233.721089zM901.49541 861.381295c0 22.088064-17.959024 40.047088-40.047088 40.047088l-698.897667 0c-22.088064 0-40.047088-17.959024-40.047088-40.047088L122.503567 329.410452c0-22.089088 17.959024-40.048111 40.047088-40.048111l698.897667 0c22.088064 0 40.047088 17.959024 40.047088 40.048111L901.49541 861.381295z" p-id="3236"></path><path d="M288.750915 485.60484 288.750915 527.33629 288.750915 541.247114 344.393189 541.247114 344.393189 485.60484 330.482365 485.60484Z" p-id="3237"></path><path d="M483.689722 485.60484l55.642275 0 0 55.642275-55.642275 0 0-55.642275Z" p-id="3238"></path><path d="M483.689722 652.695393l55.642275 0 0 55.642275-55.642275 0 0-55.642275Z" p-id="3239"></path><path d="M288.750915 652.695393l55.642275 0 0 55.642275-55.642275 0 0-55.642275Z" p-id="3240"></path><path d="M678.409542 484.736053l55.642275 0 0 55.642275-55.642275 0 0-55.642275Z" p-id="3241"></path><path d="M678.572248 652.803863l55.642275 0 0 55.642275-55.642275 0 0-55.642275Z" p-id="3242"></path></svg>