<svg t="1607909319244" class="icon" viewBox="0 0 1024 1024" version="1.1" xmlns="http://www.w3.org/2000/svg" p-id="9194" width="500" height="500"><path d="M784.981333 170.769067A16.930133 16.930133 0 0 0 768.085333 153.6h-512.170666C246.613333 153.6 238.933333 161.314133 238.933333 170.837333v305.578667C247.466667 620.526933 367.035733 733.866667 512 733.866667c145.032533 0 264.516267-113.390933 272.622933-257.416534l0.3584-305.681066zM835.84 477.866667C826.948267 649.028267 685.346133 785.066667 512 785.066667c-173.3632 0-314.948267-136.0384-324.266667-307.2V170.837333C187.733333 133.12 218.2656 102.4 255.914667 102.4h512.170666a68.130133 68.130133 0 0 1 68.096 68.437333L835.84 477.866667z" fill="#108EE9" p-id="9195"></path><path d="M904.311467 433.7152l0.136533-126.464A17.015467 17.015467 0 0 0 887.364267 290.133333H836.266667v238.9504a110.933333 110.933333 0 0 0 68.0448-95.368533zM785.066667 238.933333h102.2976a68.215467 68.215467 0 0 1 68.283733 68.369067l-0.136533 127.8976c-4.437333 85.572267-75.229867 153.6-161.911467 153.6-2.8672 0-5.700267-0.068267-8.533333-0.221867V238.933333zM187.648 238.933333l51.2 51.2h-51.2v-51.2z m0 51.2H136.567467A17.015467 17.015467 0 0 0 119.466667 307.2512l0.136533 126.464a110.933333 110.933333 0 0 0 68.0448 95.368533V290.133333z m51.2-51.2v349.6448a164.778667 164.778667 0 0 1-8.533333 0.221867c-86.664533 0-157.474133-68.027733-161.911467-153.6L68.266667 307.3024A68.215467 68.215467 0 0 1 136.567467 238.933333h102.280533z" fill="#108EE9" p-id="9196"></path><path d="M494.933333 733.866667l51.2 0 0 179.2-51.2 0 0-179.2Z" fill="#108EE9" p-id="9197"></path><path d="M699.733333 870.4l0 51.2-375.466666 0 0-51.2 375.466666 0Z" fill="#108EE9" p-id="9198"></path></svg>