<svg t="1608273360708" class="icon" viewBox="0 0 1024 1024" version="1.1" xmlns="http://www.w3.org/2000/svg" p-id="7136" width="500" height="500"><path d="M212.254172 399.98481c-61.242829 1.146103-109.966531 51.499931-109.574604 113.239064 0.403183 63.48694 52.322669 113.081475 116.001991 110.806665 61.043285-2.180666 109.980857-54.281277 108.014062-114.994034C324.720639 448.094528 273.037537 398.844847 212.254172 399.98481zM216.434377 549.305651c-18.622126 1.201361-38.324864-16.799618-39.08518-35.709293-0.776689-19.326161 16.877389-37.415145 36.655851-37.560454 18.87386-0.137123 34.274618 13.993712 35.848463 32.890085C251.557316 529.399275 236.133022 548.035728 216.434377 549.305651z" p-id="7137"></path><path d="M513.50426 399.957181c-60.714803 0.028653-111.759363 50.482765-112.456235 111.158682-0.720408 62.596663 51.509141 114.059755 114.675786 112.99347 61.641919-1.039679 109.925598-50.909483 109.374036-112.966864C624.549356 449.63972 574.656015 399.929552 513.50426 399.957181zM510.338151 549.09792c-17.835204-1.736551-32.588209-18.352997-32.652677-36.777625-0.074701-20.791535 16.533558-36.980239 37.160341-36.225039 19.868513 0.727571 36.951587 19.260669 35.534308 38.555108C548.986379 533.62246 528.897855 550.905078 510.338151 549.09792z" p-id="7138"></path><path d="M911.465994 460.023208c-23.080671-45.490054-76.531024-69.337181-124.874055-56.851822-50.558489 13.057387-84.71338 56.164161-85.345784 107.717304-0.61296 50.028417 32.522718 95.827509 78.378092 108.332311 21.522176 5.867638 41.49609-2.111081 48.316425-20.564361 7.192819-19.464307 1.13587-35.177174-16.534582-46.066175-6.350638-3.914146-13.647835-6.429433-19.606547-10.813277-13.416568-9.871835-20.174482-24.721031-12.983709-39.226397 5.239328-10.570753 32.465412-38.135552 62.781882-11.154038 7.130398 6.345522 9.546424 18.478863 16.162098 26.276457 10.365068 12.213159 23.919782 17.548678 40.09723 10.819416 15.395642-6.402827 24.790616-17.847483 23.315008-34.498722C920.144654 482.433614 916.721695 470.382137 911.465994 460.023208z" p-id="7139"></path></svg>