<svg t="1607909050275" class="icon" viewBox="0 0 1024 1024" version="1.1" xmlns="http://www.w3.org/2000/svg" p-id="3659" width="500" height="500"><path d="M605.7 84.7c0.6 0 1.2 0 1.6 0.1 1 5.4 0.8 19.1-7.8 42.2l-74.5 202.2c-19.3 52.3-64 90.2-106.3 90.2-7.9 0-15.6-1.3-22.8-4-47.3-17.4-71.5-70-54.1-117.3 21.6-58.5 103.8-141.3 175.9-177.1l48.3-24C588.5 85.9 601.2 84.7 605.7 84.7M694.3 336.6c10.7 0 21.2 1.9 31.2 5.6 58.5 21.6 141.3 103.8 177.1 175.9l24 48.3c11 22.1 12.6 35.7 12.3 41.2-1.2 0.2-3 0.4-5.6 0.4-6.7 0-18.4-1.4-36.7-8.1l-202.2-74.5c-63.8-23.5-103.3-82.6-86.2-129.1C621.4 360.6 656 336.6 694.3 336.6M90 416c6.7 0 18.4 1.4 36.7 8.1l202.2 74.5c32.5 12 60.2 33.9 76.1 60.1 14.2 23.5 17.8 48 10.1 69-13.2 35.7-47.7 59.7-86 59.7-10.7 0-21.2-1.9-31.2-5.6-58.5-21.5-141.3-103.8-177.1-175.9l-24-48.3c-11-22.1-12.6-35.7-12.3-41.2C85.7 416.2 87.5 416 90 416M604.6 604.5c7.9 0 15.6 1.3 22.8 4 47.3 17.4 71.5 70 54.1 117.3C660 784.3 577.7 867.1 505.6 903l-48.3 24c-22.3 11.1-35.1 12.3-39.6 12.3-0.6 0-1.2 0-1.6-0.1-1-5.4-0.8-19.1 7.8-42.2l74.5-202.2C517.5 642.5 562.3 604.5 604.6 604.5M605.7 42c-15.9 0-35.7 5.4-58.6 16.7l-48.3 24c-82.9 41.2-171.5 131.5-197 200.6C276.3 352.6 312 430 381.2 455.5c12.2 4.5 24.8 6.6 37.5 6.6 59.3 0 120.1-46.7 146.4-118.2l74.5-202.2C662.8 78.9 647.4 42 605.7 42L605.7 42zM694.3 293.9c-54.6 0-106.2 33.6-126.1 87.7-25.5 69.2 24.7 152 111.5 183.9L881.9 640c19.9 7.3 37.1 10.8 51.5 10.8 48.3 0 63.3-39.4 31.6-103.3l-24-48.3c-41.2-82.9-131.5-171.5-200.6-197C725.1 296.5 709.6 293.9 694.3 293.9L694.3 293.9zM90 373.2c-48.4 0-63.3 39.4-31.6 103.3l24 48.3c41.2 82.9 131.5 171.5 200.6 197 15.1 5.6 30.7 8.2 46 8.2 54.6 0 106.2-33.6 126.1-87.7 25.5-69.2-24.7-152-111.5-183.9L141.5 384C121.6 376.7 104.3 373.2 90 373.2L90 373.2zM604.6 561.8c-59.3 0-120.1 46.7-146.4 118.2l-74.5 202.2c-23.1 62.8-7.7 99.8 34 99.8 15.9 0 35.7-5.4 58.6-16.7l48.3-24c82.9-41.2 171.5-131.5 197-200.6 25.5-69.2-10.3-146.6-79.5-172.1C629.9 564 617.3 561.8 604.6 561.8L604.6 561.8z" p-id="3660"></path></svg>