<svg t="1607908994534" class="icon" viewBox="0 0 1024 1024" version="1.1" xmlns="http://www.w3.org/2000/svg" p-id="2847" width="500" height="500"><path d="M948.969143 494.41039 535.340591 128.48428c-13.32754-11.785417-33.354666-11.796674-46.670949 0L75.023694 494.41039c-10.959609 9.698896-14.782681 25.169239-9.601682 38.858006 5.187139 13.688767 18.296715 22.738887 32.937157 22.738887l67.334571 0 0 195.740056c0 84.152609 68.458161 152.611793 152.611793 152.611793l262.799358 0c0.176009 0 0.339738-0.049119 0.514723-0.051165 51.307549-0.557702 92.889597-42.425252 92.889597-93.862761L674.509211 640.154775c0-51.783387-42.130539-93.91495-93.91495-93.91495L443.408809 546.239825c-51.783387 0-93.91495 42.130539-93.91495 93.91495l0 109.552092c0 19.448958 15.769149 35.218106 35.218106 35.218106 19.448958 0 35.218106-15.769149 35.218106-35.218106L419.930071 640.154775c0-12.948917 10.529821-23.478737 23.478737-23.478737l137.186476 0c12.948917 0 23.478737 10.529821 23.478737 23.478737l0 170.289408c0 12.948917-10.529821 23.478737-23.478737 23.478737L318.305533 833.92292c-45.311998 0-82.175581-36.863582-82.175581-82.175581L236.129952 520.789177c0-19.448958-15.769149-35.218106-35.218106-35.218106l-9.589402 0L512.005117 201.883987l320.670393 283.687084-9.578146 0c-19.448958 0-35.218106 15.769149-35.218106 35.218106l0 230.958162c0 28.420283-14.387685 54.443983-38.479383 69.610404-16.46295 10.364045-21.403472 32.105209-11.045567 48.568159 10.351766 16.45681 32.111349 21.386076 48.568159 11.045567 44.704155-28.145014 71.393004-76.449159 71.393004-129.22413L858.31547 556.007283l67.323315 0c14.639418 0 27.743878-9.051143 32.937157-22.738887C963.757964 519.579629 959.940009 504.109286 948.969143 494.41039z" p-id="2848"></path></svg>