<svg t="1607909158997" class="icon" viewBox="0 0 1024 1024" version="1.1" xmlns="http://www.w3.org/2000/svg" p-id="4756" width="500" height="500"><path d="M522.7 554.7c123.7 0 224-100.3 224-224s-100.3-224-224-224-224 100.3-224 224 100.3 224 224 224z m0-384c88.4 0 160 71.6 160 160s-71.6 160-160 160-160-71.6-160-160 71.6-160 160-160z m288 448H213.3C130.9 618.7 64 685.5 64 768c0 82.5 66.9 149.3 149.3 149.3h597.3c82.5 0 149.3-66.9 149.3-149.3 0.1-82.5-66.8-149.3-149.2-149.3z m0 234.6H213.3c-47.1 0-85.3-38.2-85.3-85.3s38.2-85.3 85.3-85.3h597.3c47.1 0 85.3 38.2 85.3 85.3s-38.1 85.3-85.2 85.3z" fill="#0E0E0E" p-id="4757"></path></svg>