<svg t="1607909344307" class="icon" viewBox="0 0 1024 1024" version="1.1" xmlns="http://www.w3.org/2000/svg" p-id="9977" width="500" height="500"><path d="M820.5312 778.112a413.5424 413.5424 0 0 0 84.4032-154.1888c11.0592-37.76 16.6656-77.056 16.6656-116.8128 0-227.4304-183.7568-412.4416-409.6-412.4416S102.4 279.68 102.4 507.1104c0 227.4048 183.7568 412.4416 409.6 412.4416a407.296 407.296 0 0 0 118.9632-17.664 38.4 38.4 0 1 0-22.4-73.4464c-31.1808 9.4976-63.6672 14.336-96.5632 14.336-183.5008 0-332.8-150.5792-332.8-335.6416 0-185.088 149.2992-335.6672 332.8-335.6672s332.8 150.5792 332.8 335.6416a336.2816 336.2816 0 0 1-101.2736 241.0752c-0.7168 0.7168-0.9728 1.664-1.6384 2.4064-1.0496 0.8704-2.3296 1.28-3.2768 2.304a38.3232 38.3232 0 0 0 1.2288 54.272l116.8384 111.6672c7.424 7.1168 16.9728 10.6496 26.5216 10.6496 10.1376 0 20.224-3.968 27.7504-11.8784a38.3232 38.3232 0 0 0-1.2288-54.272l-89.1904-85.2224z" fill="#223D60" p-id="9978"></path><path d="M756.6848 582.784a25.6 25.6 0 0 0 29.824-20.5056c5.2736-28.4928 7.8592-54.6304 3.3792-89.4464a25.4464 25.4464 0 0 0-28.672-22.1184 25.6 25.6 0 0 0-22.1184 28.672c3.6608 28.288 1.5872 49.1264-2.9184 73.6a25.5488 25.5488 0 0 0 20.5056 29.7984zM749.1328 411.4176a25.6 25.6 0 0 0 10.7264-34.5856A279.4496 279.4496 0 0 0 512 227.1744c-62.1312 0-120.9856 19.9424-170.1632 57.6256a25.6 25.6 0 0 0 31.1296 40.6528A226.5344 226.5344 0 0 1 512 278.3744a228.352 228.352 0 0 1 202.5472 122.3424 25.6 25.6 0 0 0 34.5856 10.7008z" fill="#223D60" p-id="9979"></path></svg>