<svg t="1606887673022" class="icon" viewBox="0 0 1024 1024" version="1.1" xmlns="http://www.w3.org/2000/svg" p-id="8259" width="500" height="500"><path d="M331.956 637.55c32.888 49.69 100.13 63.348 149.923 30.73 8.366-5.52 10.567-16.76 5.104-25.024-5.541-8.358-16.78-10.572-25.052-5.114-33.138 21.89-78.013 12.722-99.959-20.425-21.946-33.148-12.815-77.99 20.323-99.88L749.928 300.13l-28.143 139.264c-1.997 9.76 4.262 19.21 14.033 21.205a17.886 17.886 0 0 0 21.196-14.001l36.65-180.894c1.889-9.698-4.37-19.163-14.032-21.205l-181.749-38.106c-9.677-2.058-19.292 4.147-21.275 13.908-2.045 9.667 4.183 19.287 13.954 21.282l138.669 29.063-374.345 222.118c-1.827 1.216-3.247 2.682-4.433 4.257-39.787 34.987-48.606 95.062-18.497 140.527" p-id="8260"></path><path d="M511.719 995c-83.739 0-166.354-21.936-240.823-64.888C159.067 865.645 79.12 761.522 45.694 636.945 12.25 512.352 29.417 382.217 93.93 270.52 158.474 158.809 262.672 78.885 387.36 45.489c76.762-20.531 157.989-21.936 234.814-3.95 11.252 2.638 18.212 13.864 15.606 25.106-2.607 11.226-13.952 18.173-25.125 15.582-70.178-16.41-144.335-15.145-214.45 3.637-113.904 30.477-209.113 103.484-268.07 205.531-58.942 102.048-74.579 220.91-44.039 334.73 30.509 113.804 103.574 208.919 205.711 267.811 102.106 58.877 221.02 74.569 335.002 44.03 113.904-30.509 209.097-103.5 268.039-205.547 58.957-102.047 74.61-220.926 44.07-334.714-2.997-11.163 3.62-22.608 14.778-25.605 11.501-2.92 22.643 3.653 25.624 14.77 33.411 124.592 16.277 254.727-48.236 366.44-64.56 111.71-168.757 191.619-293.445 225.015C595.99 989.473 553.713 995 511.72 995" p-id="8261"></path></svg>