<svg t="1607160251389" class="icon" viewBox="0 0 1024 1024" version="1.1" xmlns="http://www.w3.org/2000/svg" p-id="3942" width="500" height="500"><path d="M996.12 211.772c-27.41 40.139-60.586 74.338-99.524 102.58 0.419 5.715 0.628 14.311 0.628 25.788 0 53.242-7.782 106.353-23.346 159.333-15.565 52.986-39.201 103.845-70.903 152.58-31.707 48.735-69.47 91.84-113.279 129.306-43.813 37.474-96.638 67.37-158.477 89.693-61.84 22.323-127.951 33.491-198.335 33.491-110.943 0-212.483-29.692-304.613-89.063 14.305 1.622 30.264 2.434 47.876 2.434 92.13 0 174.226-28.247 246.284-84.738-42.974-0.84-81.467-14.043-115.478-39.62-34.01-25.57-57.358-58.222-70.042-97.94 13.519 2.04 26.018 3.063 37.495 3.063 17.612 0 35.008-2.256 52.2-6.764-45.855-9.43-83.828-32.252-113.908-68.466-30.08-36.208-45.12-78.268-45.12-126.163v-2.44c27.829 15.564 57.726 23.95 89.694 25.157-27.04-18.026-48.532-41.557-64.463-70.591-15.932-29.03-23.926-60.552-23.973-94.563 0-36.055 9.01-69.41 27.042-100.067 49.525 60.998 109.815 109.812 180.881 146.446 71.06 36.63 147.106 56.99 228.126 61.078-3.249-15.565-4.874-30.71-4.874-45.435 0-54.868 19.337-101.641 58.013-140.316s85.45-58.012 140.32-58.012c57.332 0 105.649 20.886 144.955 62.65 44.653-8.595 86.63-24.553 125.93-47.873-15.144 47.06-44.201 83.511-87.176 109.344 38.1-4.088 76.173-14.33 114.218-30.735l-0.151-0.157z" fill="#00ACED" p-id="3943"></path></svg>