<svg t="1607160341036" class="icon" viewBox="0 0 1024 1024" version="1.1" xmlns="http://www.w3.org/2000/svg" p-id="6855" width="500" height="500"><path d="M553.173333 201.984a33.749333 33.749333 0 0 0-39.68 0L296.832 359.552v394.24c0 18.645333 15.146667 33.792 33.792 33.792h67.541333v-202.666667a101.333333 101.333333 0 0 1 101.333334-101.333333h67.541333a101.333333 101.333333 0 0 1 101.333333 101.333333v202.666667h67.584a33.792 33.792 0 0 0 33.749334-33.792v-394.24l-216.576-157.568z m284.16 206.677333l47.701334 34.688a33.792 33.792 0 1 0 39.68-54.656l-331.776-241.322666a101.376 101.376 0 0 0-119.210667 0L141.909333 388.693333a33.792 33.792 0 0 0 39.722667 54.613334l47.701333-34.645334v345.130667a101.333333 101.333333 0 0 0 101.333334 101.333333h405.333333a101.333333 101.333333 0 0 0 101.333333-101.333333v-345.173333z m-236.458666 378.88v-202.666666a33.792 33.792 0 0 0-33.792-33.749334h-67.541334a33.792 33.792 0 0 0-33.749333 33.792v202.666667h135.082667z" fill="#000000" p-id="6856"></path></svg>