<?xml version="1.0" encoding="utf-8"?>
<!-- Generator: Adobe Illustrator 15.0.0, SVG Export Plug-In  -->
<!DOCTYPE svg PUBLIC "-//W3C//DTD SVG 1.1//EN" "http://www.w3.org/Graphics/SVG/1.1/DTD/svg11.dtd" [
	<!ENTITY ns_flows "http://ns.adobe.com/Flows/1.0/">
]>
<svg version="1.1"
	 xmlns="http://www.w3.org/2000/svg" xmlns:xlink="http://www.w3.org/1999/xlink" xmlns:a="http://ns.adobe.com/AdobeSVGViewerExtensions/3.0/"
	 x="0px" y="0px" width="462px" height="112px" viewBox="167 182.029 462 112"
	 overflow="visible" enable-background="new 167 182.029 462 112" xml:space="preserve">
<defs>
</defs>
<g>
	<defs>
		<rect id="SVGID_1_" y="92.029" width="858.896" height="612.288"/>
	</defs>
	<clipPath id="SVGID_2_">
		<use xlink:href="#SVGID_1_"  overflow="visible"/>
	</clipPath>
	<path clip-path="url(#SVGID_2_)" fill="#FFFFFF" d="M288.868,382.707v3.107c0,1.088-0.035,2.123-0.105,3.106
		c-0.07,1.194-0.105,2.791-0.105,4.792s-0.071,4.16-0.211,6.477c-0.14,2.317-0.368,4.669-0.684,7.056
		c-0.316,2.388-0.826,4.564-1.528,6.529c-0.702,1.966-1.632,3.563-2.79,4.792c-1.159,1.229-2.615,1.878-4.371,1.949
		c-1.334,0.069-2.457-0.456-3.37-1.58s-1.667-2.581-2.264-4.371c-0.597-1.79-1.036-3.791-1.317-6.003
		c-0.28-2.212-0.491-4.353-0.631-6.423c-0.141-2.072-0.211-3.985-0.211-5.74V392.5v-4.792c0-2.071,0.07-4.3,0.211-6.687
		c0.14-2.387,0.403-4.809,0.789-7.267c0.386-2.457,0.948-4.704,1.685-6.739c0.738-2.037,1.703-3.687,2.897-4.951
		c1.193-1.263,2.702-1.895,4.528-1.895c1.896,0,3.335,0.948,4.318,2.844c0.983,1.895,1.72,4.106,2.211,6.634
		c0.492,2.528,0.773,5.037,0.843,7.53C288.833,379.669,288.868,381.513,288.868,382.707"/>
	<path clip-path="url(#SVGID_2_)" fill="none" stroke="#231815" stroke-miterlimit="10" d="M288.868,382.707v3.107
		c0,1.088-0.035,2.123-0.105,3.106c-0.07,1.194-0.105,2.791-0.105,4.792s-0.071,4.16-0.211,6.477
		c-0.14,2.317-0.368,4.669-0.684,7.056c-0.316,2.388-0.826,4.564-1.528,6.529c-0.702,1.966-1.632,3.563-2.79,4.792
		c-1.159,1.229-2.615,1.878-4.371,1.949c-1.334,0.069-2.457-0.456-3.37-1.58s-1.667-2.581-2.264-4.371
		c-0.597-1.79-1.036-3.791-1.317-6.003c-0.28-2.212-0.491-4.353-0.631-6.423c-0.141-2.072-0.211-3.985-0.211-5.74V392.5v-4.792
		c0-2.071,0.07-4.3,0.211-6.687c0.14-2.387,0.403-4.809,0.789-7.267c0.386-2.457,0.948-4.704,1.685-6.739
		c0.738-2.037,1.703-3.687,2.897-4.951c1.193-1.263,2.702-1.895,4.528-1.895c1.896,0,3.335,0.948,4.318,2.844
		c0.983,1.895,1.72,4.106,2.211,6.634c0.492,2.528,0.773,5.037,0.843,7.53C288.833,379.669,288.868,381.513,288.868,382.707z"/>
	<path clip-path="url(#SVGID_2_)" fill="#FFFFFF" d="M288.025,346.9c0,0.983-0.263,1.861-0.79,2.633
		c-0.526,0.772-1.211,1.457-2.054,2.053c-0.842,0.597-1.755,1.054-2.738,1.37s-1.896,0.474-2.738,0.474
		c-1.404,0-2.633-0.351-3.686-1.053c-1.053-0.703-1.58-1.791-1.58-3.265c0-1.053,0.264-1.984,0.79-2.791
		c0.527-0.808,1.176-1.475,1.949-2.001c0.772-0.526,1.65-0.93,2.633-1.211c0.982-0.281,1.93-0.421,2.843-0.421
		c1.334,0,2.562,0.315,3.686,0.947C287.463,344.267,288.025,345.355,288.025,346.9"/>
	<path clip-path="url(#SVGID_2_)" fill="none" stroke="#231815" stroke-miterlimit="10" d="M288.025,346.9
		c0,0.983-0.263,1.861-0.79,2.633c-0.526,0.772-1.211,1.457-2.054,2.053c-0.842,0.597-1.755,1.054-2.738,1.37
		s-1.896,0.474-2.738,0.474c-1.404,0-2.633-0.351-3.686-1.053c-1.053-0.703-1.58-1.791-1.58-3.265c0-1.053,0.264-1.984,0.79-2.791
		c0.527-0.808,1.176-1.475,1.949-2.001c0.772-0.526,1.65-0.93,2.633-1.211c0.982-0.281,1.93-0.421,2.843-0.421
		c1.334,0,2.562,0.315,3.686,0.947C287.463,344.267,288.025,345.355,288.025,346.9z"/>
	<path clip-path="url(#SVGID_2_)" fill="#FFFFFF" d="M344.561,366.067c0,1.124-0.21,2.299-0.632,3.528
		c-0.421,1.229-0.948,2.475-1.579,3.739c-0.632,1.264-1.299,2.475-2.001,3.633c-0.703,1.159-1.334,2.229-1.896,3.212
		c-1.404,2.247-2.791,4.529-4.16,6.845c-1.369,2.317-2.755,4.599-4.16,6.846c0.632,0.983,1.51,2.352,2.633,4.107
		c1.124,1.755,2.229,3.599,3.318,5.53c1.088,1.93,2.018,3.843,2.79,5.739c0.772,1.895,1.159,3.511,1.159,4.844
		c0,1.264-0.492,2.493-1.475,3.686c-0.983,1.193-2.176,1.79-3.58,1.79c-1.475,0-2.967-0.525-4.476-1.579
		c-1.51-1.054-2.984-2.3-4.423-3.738c-1.44-1.439-2.756-2.949-3.95-4.529c-1.193-1.579-2.211-2.896-3.054-3.949
		c-0.912,0.983-2.089,2.318-3.528,4.002c-1.439,1.687-2.984,3.335-4.633,4.95c-1.65,1.615-3.283,3.001-4.897,4.16
		c-1.616,1.159-3.055,1.738-4.318,1.738c-1.475,0-2.633-0.527-3.476-1.58c-0.842-1.054-1.264-2.282-1.264-3.687
		c0-1.403,0.475-3.193,1.422-5.371c0.948-2.177,2.071-4.423,3.37-6.739c1.299-2.317,2.598-4.529,3.897-6.635
		c1.299-2.106,2.299-3.756,3.001-4.95c-0.702-1.263-1.58-2.931-2.632-5.002c-1.054-2.071-2.054-4.248-3.002-6.529
		c-0.948-2.282-1.755-4.529-2.422-6.741c-0.667-2.211-1.001-4.054-1.001-5.529c0-1.614,0.492-2.913,1.474-3.896
		c0.984-0.983,2.283-1.475,3.897-1.475c1.756,0,3.405,0.685,4.95,2.054c1.545,1.369,2.984,3.019,4.318,4.95s2.51,3.931,3.528,6.003
		c1.018,2.071,1.843,3.774,2.475,5.108c0.842-1.264,2.018-2.984,3.528-5.161c1.509-2.176,3.212-4.318,5.108-6.424
		c1.895-2.106,3.861-3.932,5.897-5.476c2.036-1.545,3.967-2.317,5.792-2.317c1.194,0,2.159,0.509,2.897,1.527
		C344.192,363.768,344.561,364.874,344.561,366.067"/>
	<path clip-path="url(#SVGID_2_)" fill="none" stroke="#231815" stroke-miterlimit="10" d="M344.561,366.067
		c0,1.124-0.21,2.299-0.632,3.528c-0.421,1.229-0.948,2.475-1.579,3.739c-0.632,1.264-1.299,2.475-2.001,3.633
		c-0.703,1.159-1.334,2.229-1.896,3.212c-1.404,2.247-2.791,4.529-4.16,6.845c-1.369,2.317-2.755,4.599-4.16,6.846
		c0.632,0.983,1.51,2.352,2.633,4.107c1.124,1.755,2.229,3.599,3.318,5.53c1.088,1.93,2.018,3.843,2.79,5.739
		c0.772,1.895,1.159,3.511,1.159,4.844c0,1.264-0.492,2.493-1.475,3.686c-0.983,1.193-2.176,1.79-3.58,1.79
		c-1.475,0-2.967-0.525-4.476-1.579c-1.51-1.054-2.984-2.3-4.423-3.738c-1.44-1.439-2.756-2.949-3.95-4.529
		c-1.193-1.579-2.211-2.896-3.054-3.949c-0.912,0.983-2.089,2.318-3.528,4.002c-1.439,1.687-2.984,3.335-4.633,4.95
		c-1.65,1.615-3.283,3.001-4.897,4.16c-1.616,1.159-3.055,1.738-4.318,1.738c-1.475,0-2.633-0.527-3.476-1.58
		c-0.842-1.054-1.264-2.282-1.264-3.687c0-1.403,0.475-3.193,1.422-5.371c0.948-2.177,2.071-4.423,3.37-6.739
		c1.299-2.317,2.598-4.529,3.897-6.635c1.299-2.106,2.299-3.756,3.001-4.95c-0.702-1.263-1.58-2.931-2.632-5.002
		c-1.054-2.071-2.054-4.248-3.002-6.529c-0.948-2.282-1.755-4.529-2.422-6.741c-0.667-2.211-1.001-4.054-1.001-5.529
		c0-1.614,0.492-2.913,1.474-3.896c0.984-0.983,2.283-1.475,3.897-1.475c1.756,0,3.405,0.685,4.95,2.054
		c1.545,1.369,2.984,3.019,4.318,4.95s2.51,3.931,3.528,6.003c1.018,2.071,1.843,3.774,2.475,5.108
		c0.842-1.264,2.018-2.984,3.528-5.161c1.509-2.176,3.212-4.318,5.108-6.424c1.895-2.106,3.861-3.932,5.897-5.476
		c2.036-1.545,3.967-2.317,5.792-2.317c1.194,0,2.159,0.509,2.897,1.527C344.192,363.768,344.561,364.874,344.561,366.067z"/>
	<path clip-path="url(#SVGID_2_)" fill="#FFFFFF" d="M369.176,382.707v3.107c0,1.088-0.037,2.123-0.105,3.106
		c-0.07,1.194-0.105,2.791-0.105,4.792s-0.071,4.16-0.211,6.477c-0.142,2.317-0.368,4.669-0.684,7.056
		c-0.316,2.388-0.828,4.564-1.528,6.529c-0.701,1.966-1.632,3.563-2.79,4.792c-1.159,1.229-2.618,1.878-4.371,1.949
		c-1.334,0.069-2.459-0.456-3.37-1.58c-0.913-1.124-1.669-2.581-2.264-4.371c-0.597-1.79-1.038-3.791-1.317-6.003
		c-0.28-2.212-0.491-4.353-0.631-6.423c-0.143-2.072-0.211-3.985-0.211-5.74V392.5v-4.792c0-2.071,0.068-4.3,0.211-6.687
		c0.14-2.387,0.403-4.809,0.79-7.267c0.383-2.457,0.947-4.704,1.685-6.739c0.737-2.037,1.7-3.687,2.896-4.951
		c1.193-1.263,2.7-1.895,4.528-1.895c1.895,0,3.332,0.948,4.318,2.844c0.983,1.895,1.72,4.106,2.211,6.634
		c0.49,2.528,0.773,5.037,0.843,7.53C369.139,379.669,369.176,381.513,369.176,382.707"/>
	<path clip-path="url(#SVGID_2_)" fill="none" stroke="#231815" stroke-miterlimit="10" d="M369.176,382.707v3.107
		c0,1.088-0.037,2.123-0.105,3.106c-0.07,1.194-0.105,2.791-0.105,4.792s-0.071,4.16-0.211,6.477
		c-0.142,2.317-0.368,4.669-0.684,7.056c-0.316,2.388-0.828,4.564-1.528,6.529c-0.701,1.966-1.632,3.563-2.79,4.792
		c-1.159,1.229-2.618,1.878-4.371,1.949c-1.334,0.069-2.459-0.456-3.37-1.58c-0.913-1.124-1.669-2.581-2.264-4.371
		c-0.597-1.79-1.038-3.791-1.317-6.003c-0.28-2.212-0.491-4.353-0.631-6.423c-0.143-2.072-0.211-3.985-0.211-5.74V392.5v-4.792
		c0-2.071,0.068-4.3,0.211-6.687c0.14-2.387,0.403-4.809,0.79-7.267c0.383-2.457,0.947-4.704,1.685-6.739
		c0.737-2.037,1.7-3.687,2.896-4.951c1.193-1.263,2.7-1.895,4.528-1.895c1.895,0,3.332,0.948,4.318,2.844
		c0.983,1.895,1.72,4.106,2.211,6.634c0.49,2.528,0.773,5.037,0.843,7.53C369.139,379.669,369.176,381.513,369.176,382.707z"/>
	<path clip-path="url(#SVGID_2_)" fill="#FFFFFF" d="M368.333,346.9c0,0.983-0.263,1.861-0.79,2.633
		c-0.526,0.772-1.211,1.457-2.053,2.053c-0.843,0.597-1.756,1.054-2.739,1.37c-0.985,0.316-1.895,0.474-2.738,0.474
		c-1.406,0-2.633-0.351-3.686-1.053c-1.053-0.703-1.58-1.791-1.58-3.265c0-1.053,0.264-1.984,0.79-2.791
		c0.527-0.808,1.174-1.475,1.949-2.001c0.772-0.526,1.647-0.93,2.633-1.211c0.982-0.281,1.93-0.421,2.843-0.421
		c1.332,0,2.563,0.315,3.686,0.947C367.77,344.267,368.333,345.355,368.333,346.9"/>
	<path clip-path="url(#SVGID_2_)" fill="none" stroke="#231815" stroke-miterlimit="10" d="M368.333,346.9
		c0,0.983-0.263,1.861-0.79,2.633c-0.526,0.772-1.211,1.457-2.053,2.053c-0.843,0.597-1.756,1.054-2.739,1.37
		c-0.985,0.316-1.895,0.474-2.738,0.474c-1.406,0-2.633-0.351-3.686-1.053c-1.053-0.703-1.58-1.791-1.58-3.265
		c0-1.053,0.264-1.984,0.79-2.791c0.527-0.808,1.174-1.475,1.949-2.001c0.772-0.526,1.647-0.93,2.633-1.211
		c0.982-0.281,1.93-0.421,2.843-0.421c1.332,0,2.563,0.315,3.686,0.947C367.77,344.267,368.333,345.355,368.333,346.9z"/>
	<path clip-path="url(#SVGID_2_)" fill="#FFFFFF" d="M430.111,350.691c0,2.527-0.316,5.353-0.948,8.478
		c-0.632,3.124-1.422,6.301-2.369,9.53c-0.949,3.23-1.966,6.372-3.055,9.426c-1.09,3.054-2.054,5.81-2.896,8.267
		c-0.564,1.545-1.176,3.458-1.843,5.74c-0.669,2.282-1.44,4.687-2.317,7.214c-0.88,2.526-1.843,5.055-2.896,7.582
		c-1.053,2.527-2.211,4.791-3.476,6.793c-1.264,2.001-2.65,3.634-4.159,4.896c-1.512,1.264-3.145,1.896-4.898,1.896
		c-1.474,0-2.896-0.667-4.265-2.001c-1.369-1.335-2.67-3.036-3.896-5.108c-1.229-2.071-2.387-4.388-3.476-6.951
		c-1.09-2.562-2.071-5.072-2.948-7.529c-0.88-2.458-1.617-4.739-2.212-6.846c-0.597-2.106-1.037-3.721-1.316-4.844
		c-1.406-5.477-2.738-11.005-4.002-16.587c-1.264-5.582-1.896-11.181-1.896-16.798c0-1.404,0.068-2.861,0.211-4.37
		c0.14-1.51,0.489-2.896,1.053-4.16c0.561-1.264,1.351-2.299,2.37-3.107c1.015-0.807,2.437-1.211,4.265-1.211
		c1.542,0,2.964,0.86,4.265,2.58c1.299,1.72,2.474,3.949,3.528,6.688c1.053,2.738,2.016,5.792,2.896,9.162
		c0.878,3.37,1.7,6.687,2.475,9.952c0.772,3.265,1.51,6.319,2.211,9.162c0.7,2.844,1.404,5.108,2.107,6.793
		c0.421-1.404,1.036-3.458,1.842-6.161s1.753-5.669,2.844-8.899c1.088-3.23,2.279-6.547,3.581-9.952
		c1.299-3.405,2.668-6.494,4.107-9.267c1.437-2.774,2.931-5.038,4.476-6.793c1.542-1.756,3.122-2.633,4.739-2.633
		c1.194,0,2.174,0.281,2.949,0.843c0.772,0.561,1.369,1.299,1.79,2.211c0.422,0.913,0.72,1.896,0.896,2.949
		C430.021,348.69,430.111,349.708,430.111,350.691"/>
	<path clip-path="url(#SVGID_2_)" fill="none" stroke="#231815" stroke-miterlimit="10" d="M430.111,350.691
		c0,2.527-0.316,5.353-0.948,8.478c-0.632,3.124-1.422,6.301-2.369,9.53c-0.949,3.23-1.966,6.372-3.055,9.426
		c-1.09,3.054-2.054,5.81-2.896,8.267c-0.564,1.545-1.176,3.458-1.843,5.74c-0.669,2.282-1.44,4.687-2.317,7.214
		c-0.88,2.526-1.843,5.055-2.896,7.582c-1.053,2.527-2.211,4.791-3.476,6.793c-1.264,2.001-2.65,3.634-4.159,4.896
		c-1.512,1.264-3.145,1.896-4.898,1.896c-1.474,0-2.896-0.667-4.265-2.001c-1.369-1.335-2.67-3.036-3.896-5.108
		c-1.229-2.071-2.387-4.388-3.476-6.951c-1.09-2.562-2.071-5.072-2.948-7.529c-0.88-2.458-1.617-4.739-2.212-6.846
		c-0.597-2.106-1.037-3.721-1.316-4.844c-1.406-5.477-2.738-11.005-4.002-16.587c-1.264-5.582-1.896-11.181-1.896-16.798
		c0-1.404,0.068-2.861,0.211-4.37c0.14-1.51,0.489-2.896,1.053-4.16c0.561-1.264,1.351-2.299,2.37-3.107
		c1.015-0.807,2.437-1.211,4.265-1.211c1.542,0,2.964,0.86,4.265,2.58c1.299,1.72,2.474,3.949,3.528,6.688
		c1.053,2.738,2.016,5.792,2.896,9.162c0.878,3.37,1.7,6.687,2.475,9.952c0.772,3.265,1.51,6.319,2.211,9.162
		c0.7,2.844,1.404,5.108,2.107,6.793c0.421-1.404,1.036-3.458,1.842-6.161s1.753-5.669,2.844-8.899
		c1.088-3.23,2.279-6.547,3.581-9.952c1.299-3.405,2.668-6.494,4.107-9.267c1.437-2.774,2.931-5.038,4.476-6.793
		c1.542-1.756,3.122-2.633,4.739-2.633c1.194,0,2.174,0.281,2.949,0.843c0.772,0.561,1.369,1.299,1.79,2.211
		c0.422,0.913,0.72,1.896,0.896,2.949C430.021,348.69,430.111,349.708,430.111,350.691z"/>
	<path clip-path="url(#SVGID_2_)" fill="#FFFFFF" d="M454.331,382.707v3.107c0,1.088-0.037,2.123-0.104,3.106
		c-0.071,1.194-0.106,2.791-0.106,4.792s-0.07,4.16-0.211,6.477c-0.143,2.317-0.368,4.669-0.685,7.056
		c-0.315,2.388-0.826,4.564-1.526,6.529c-0.702,1.966-1.633,3.563-2.791,4.792s-2.617,1.878-4.37,1.949
		c-1.334,0.069-2.46-0.456-3.37-1.58c-0.913-1.124-1.67-2.581-2.265-4.371c-0.597-1.79-1.038-3.791-1.316-6.003
		c-0.281-2.212-0.491-4.353-0.632-6.423c-0.143-2.072-0.211-3.985-0.211-5.74V392.5v-4.792c0-2.071,0.068-4.3,0.211-6.687
		c0.141-2.387,0.403-4.809,0.79-7.267c0.384-2.457,0.947-4.704,1.685-6.739c0.737-2.037,1.7-3.687,2.896-4.951
		c1.192-1.263,2.701-1.895,4.528-1.895c1.896,0,3.333,0.948,4.318,2.844c0.982,1.895,1.72,4.106,2.211,6.634
		c0.489,2.528,0.772,5.037,0.844,7.53C454.294,379.669,454.331,381.513,454.331,382.707"/>
	<path clip-path="url(#SVGID_2_)" fill="none" stroke="#231815" stroke-miterlimit="10" d="M454.331,382.707v3.107
		c0,1.088-0.037,2.123-0.104,3.106c-0.071,1.194-0.106,2.791-0.106,4.792s-0.07,4.16-0.211,6.477
		c-0.143,2.317-0.368,4.669-0.685,7.056c-0.315,2.388-0.826,4.564-1.526,6.529c-0.702,1.966-1.633,3.563-2.791,4.792
		s-2.617,1.878-4.37,1.949c-1.334,0.069-2.46-0.456-3.37-1.58c-0.913-1.124-1.67-2.581-2.265-4.371
		c-0.597-1.79-1.038-3.791-1.316-6.003c-0.281-2.212-0.491-4.353-0.632-6.423c-0.143-2.072-0.211-3.985-0.211-5.74V392.5v-4.792
		c0-2.071,0.068-4.3,0.211-6.687c0.141-2.387,0.403-4.809,0.79-7.267c0.384-2.457,0.947-4.704,1.685-6.739
		c0.737-2.037,1.7-3.687,2.896-4.951c1.192-1.263,2.701-1.895,4.528-1.895c1.896,0,3.333,0.948,4.318,2.844
		c0.982,1.895,1.72,4.106,2.211,6.634c0.489,2.528,0.772,5.037,0.844,7.53C454.294,379.669,454.331,381.513,454.331,382.707z"/>
	<path clip-path="url(#SVGID_2_)" fill="#FFFFFF" d="M453.488,346.9c0,0.983-0.264,1.861-0.79,2.633s-1.211,1.457-2.054,2.053
		c-0.842,0.597-1.755,1.054-2.738,1.37c-0.984,0.316-1.896,0.474-2.737,0.474c-1.407,0-2.633-0.351-3.687-1.053
		c-1.053-0.703-1.579-1.791-1.579-3.265c0-1.053,0.263-1.984,0.789-2.791c0.528-0.808,1.174-1.475,1.948-2.001
		c0.772-0.526,1.648-0.93,2.633-1.211c0.983-0.281,1.932-0.421,2.844-0.421c1.332,0,2.562,0.315,3.687,0.947
		C452.926,344.267,453.488,345.355,453.488,346.9"/>
	<path clip-path="url(#SVGID_2_)" fill="none" stroke="#231815" stroke-miterlimit="10" d="M453.488,346.9
		c0,0.983-0.264,1.861-0.79,2.633s-1.211,1.457-2.054,2.053c-0.842,0.597-1.755,1.054-2.738,1.37
		c-0.984,0.316-1.896,0.474-2.737,0.474c-1.407,0-2.633-0.351-3.687-1.053c-1.053-0.703-1.579-1.791-1.579-3.265
		c0-1.053,0.263-1.984,0.789-2.791c0.528-0.808,1.174-1.475,1.948-2.001c0.772-0.526,1.648-0.93,2.633-1.211
		c0.983-0.281,1.932-0.421,2.844-0.421c1.332,0,2.562,0.315,3.687,0.947C452.926,344.267,453.488,345.355,453.488,346.9z"/>
	<path clip-path="url(#SVGID_2_)" fill="#FFFFFF" d="M497.733,362.486c0,2.036-0.685,3.546-2.054,4.529s-2.896,1.913-4.581,2.79
		c-1.686,0.878-3.212,1.914-4.581,3.107c-1.369,1.194-2.054,2.984-2.054,5.371c0,1.264,0.298,2.352,0.895,3.265
		c0.595,0.913,1.332,1.737,2.212,2.475c0.878,0.737,1.843,1.492,2.896,2.264c1.053,0.772,2.016,1.65,2.896,2.633
		c0.878,0.983,1.615,2.176,2.212,3.581c0.595,1.403,0.896,3.124,0.896,5.16c0,2.949-0.755,5.845-2.265,8.688
		c-1.512,2.845-3.44,5.371-5.792,7.583c-2.354,2.213-5.003,3.984-7.951,5.318c-2.949,1.334-5.862,2.001-8.741,2.001
		c-1.195,0-2.388-0.088-3.58-0.264c-1.196-0.174-2.266-0.508-3.213-1c-0.947-0.491-1.737-1.175-2.369-2.053
		c-0.632-0.879-0.948-2.02-0.948-3.424c0-1.966,0.387-3.492,1.159-4.581c0.774-1.088,1.753-1.947,2.948-2.579
		c1.193-0.633,2.475-1.123,3.844-1.476c1.369-0.35,2.649-0.79,3.845-1.315c1.193-0.527,2.174-1.212,2.948-2.055
		c0.772-0.843,1.158-2.036,1.158-3.58c0-1.475-0.579-3.002-1.737-4.581c-1.158-1.58-2.439-3.265-3.844-5.056
		c-1.406-1.79-2.686-3.703-3.844-5.739c-1.159-2.036-1.738-4.283-1.738-6.74c0-3.019,0.614-5.81,1.843-8.373
		c1.227-2.562,2.879-4.791,4.95-6.687c2.069-1.896,4.438-3.388,7.107-4.476c2.669-1.088,5.478-1.632,8.426-1.632
		c1.122,0,2.228,0.105,3.317,0.316c1.089,0.21,2.054,0.579,2.896,1.106c0.843,0.526,1.528,1.228,2.054,2.106
		C497.47,360.047,497.733,361.152,497.733,362.486"/>
	<path clip-path="url(#SVGID_2_)" fill="none" stroke="#231815" stroke-miterlimit="10" d="M497.733,362.486
		c0,2.036-0.685,3.546-2.054,4.529s-2.896,1.913-4.581,2.79c-1.686,0.878-3.212,1.914-4.581,3.107
		c-1.369,1.194-2.054,2.984-2.054,5.371c0,1.264,0.298,2.352,0.895,3.265c0.595,0.913,1.332,1.737,2.212,2.475
		c0.878,0.737,1.843,1.492,2.896,2.264c1.053,0.772,2.016,1.65,2.896,2.633c0.878,0.983,1.615,2.176,2.212,3.581
		c0.595,1.403,0.896,3.124,0.896,5.16c0,2.949-0.755,5.845-2.265,8.688c-1.512,2.845-3.44,5.371-5.792,7.583
		c-2.354,2.213-5.003,3.984-7.951,5.318c-2.949,1.334-5.862,2.001-8.741,2.001c-1.195,0-2.388-0.088-3.58-0.264
		c-1.196-0.174-2.266-0.508-3.213-1c-0.947-0.491-1.737-1.175-2.369-2.053c-0.632-0.879-0.948-2.02-0.948-3.424
		c0-1.966,0.387-3.492,1.159-4.581c0.774-1.088,1.753-1.947,2.948-2.579c1.193-0.633,2.475-1.123,3.844-1.476
		c1.369-0.35,2.649-0.79,3.845-1.315c1.193-0.527,2.174-1.212,2.948-2.055c0.772-0.843,1.158-2.036,1.158-3.58
		c0-1.475-0.579-3.002-1.737-4.581c-1.158-1.58-2.439-3.265-3.844-5.056c-1.406-1.79-2.686-3.703-3.844-5.739
		c-1.159-2.036-1.738-4.283-1.738-6.74c0-3.019,0.614-5.81,1.843-8.373c1.227-2.562,2.879-4.791,4.95-6.687
		c2.069-1.896,4.438-3.388,7.107-4.476c2.669-1.088,5.478-1.632,8.426-1.632c1.122,0,2.228,0.105,3.317,0.316
		c1.089,0.21,2.054,0.579,2.896,1.106c0.843,0.526,1.528,1.228,2.054,2.106C497.47,360.047,497.733,361.152,497.733,362.486z"/>
	<path clip-path="url(#SVGID_2_)" fill="#FFFFFF" d="M523.831,382.707v3.107c0,1.088-0.035,2.123-0.104,3.106
		c-0.071,1.194-0.105,2.791-0.105,4.792s-0.07,4.16-0.211,6.477c-0.14,2.317-0.369,4.669-0.684,7.056
		c-0.317,2.388-0.826,4.564-1.528,6.529c-0.702,1.966-1.632,3.563-2.791,4.792c-1.158,1.229-2.615,1.878-4.37,1.949
		c-1.334,0.069-2.457-0.456-3.37-1.58s-1.667-2.581-2.265-4.371c-0.597-1.79-1.035-3.791-1.316-6.003
		c-0.28-2.212-0.491-4.353-0.632-6.423c-0.14-2.072-0.21-3.985-0.21-5.74V392.5v-4.792c0-2.071,0.07-4.3,0.21-6.687
		c0.141-2.387,0.404-4.809,0.79-7.267c0.387-2.457,0.948-4.704,1.686-6.739c0.737-2.037,1.702-3.687,2.896-4.951
		c1.195-1.263,2.703-1.895,4.529-1.895c1.896,0,3.334,0.948,4.317,2.844c0.982,1.895,1.721,4.106,2.212,6.634
		s0.771,5.037,0.843,7.53C523.796,379.669,523.831,381.513,523.831,382.707"/>
	<path clip-path="url(#SVGID_2_)" fill="none" stroke="#231815" stroke-miterlimit="10" d="M523.831,382.707v3.107
		c0,1.088-0.035,2.123-0.104,3.106c-0.071,1.194-0.105,2.791-0.105,4.792s-0.07,4.16-0.211,6.477
		c-0.14,2.317-0.369,4.669-0.684,7.056c-0.317,2.388-0.826,4.564-1.528,6.529c-0.702,1.966-1.632,3.563-2.791,4.792
		c-1.158,1.229-2.615,1.878-4.37,1.949c-1.334,0.069-2.457-0.456-3.37-1.58s-1.667-2.581-2.265-4.371
		c-0.597-1.79-1.035-3.791-1.316-6.003c-0.28-2.212-0.491-4.353-0.632-6.423c-0.14-2.072-0.21-3.985-0.21-5.74V392.5v-4.792
		c0-2.071,0.07-4.3,0.21-6.687c0.141-2.387,0.404-4.809,0.79-7.267c0.387-2.457,0.948-4.704,1.686-6.739
		c0.737-2.037,1.702-3.687,2.896-4.951c1.195-1.263,2.703-1.895,4.529-1.895c1.896,0,3.334,0.948,4.317,2.844
		c0.982,1.895,1.721,4.106,2.212,6.634s0.771,5.037,0.843,7.53C523.796,379.669,523.831,381.513,523.831,382.707z"/>
	<path clip-path="url(#SVGID_2_)" fill="#FFFFFF" d="M522.988,346.9c0,0.983-0.263,1.861-0.789,2.633
		c-0.527,0.772-1.212,1.457-2.054,2.053c-0.843,0.597-1.756,1.054-2.738,1.37c-0.983,0.316-1.896,0.474-2.738,0.474
		c-1.404,0-2.633-0.351-3.686-1.053c-1.054-0.703-1.58-1.791-1.58-3.265c0-1.053,0.264-1.984,0.79-2.791
		c0.527-0.808,1.176-1.475,1.948-2.001s1.649-0.93,2.633-1.211c0.982-0.281,1.931-0.421,2.844-0.421
		c1.334,0,2.562,0.315,3.685,0.947C522.426,344.267,522.988,345.355,522.988,346.9"/>
	<path clip-path="url(#SVGID_2_)" fill="none" stroke="#231815" stroke-miterlimit="10" d="M522.988,346.9
		c0,0.983-0.263,1.861-0.789,2.633c-0.527,0.772-1.212,1.457-2.054,2.053c-0.843,0.597-1.756,1.054-2.738,1.37
		c-0.983,0.316-1.896,0.474-2.738,0.474c-1.404,0-2.633-0.351-3.686-1.053c-1.054-0.703-1.58-1.791-1.58-3.265
		c0-1.053,0.264-1.984,0.79-2.791c0.527-0.808,1.176-1.475,1.948-2.001s1.649-0.93,2.633-1.211c0.982-0.281,1.931-0.421,2.844-0.421
		c1.334,0,2.562,0.315,3.685,0.947C522.426,344.267,522.988,345.355,522.988,346.9z"/>
	<path clip-path="url(#SVGID_2_)" fill="#FFFFFF" d="M554.662,423.463c-3.581,0-6.705-0.948-9.373-2.844s-4.915-4.318-6.74-7.266
		c-1.825-2.949-3.194-6.232-4.107-9.848c-0.912-3.616-1.369-7.179-1.369-10.689c0-3.722,0.457-7.566,1.369-11.533
		c0.913-3.966,2.317-7.582,4.213-10.847c1.896-3.264,4.317-5.932,7.267-8.004c2.948-2.071,6.459-3.106,10.531-3.106
		c3.932,0,7.284,1.07,10.058,3.212c2.773,2.141,5.002,4.809,6.688,8.004c1.685,3.194,2.878,6.687,3.58,10.478
		c0.702,3.792,0.948,7.372,0.737,10.742c-0.21,3.722-0.79,7.477-1.737,11.269c-0.948,3.791-2.336,7.197-4.16,10.215
		c-1.825,3.019-4.143,5.477-6.95,7.372S558.523,423.463,554.662,423.463 M555.715,375.861c-1.053,0-1.983,0.562-2.791,1.685
		c-0.807,1.123-1.474,2.492-2.001,4.107c-0.526,1.615-0.93,3.317-1.211,5.108c-0.28,1.79-0.421,3.353-0.421,4.686
		c0,1.686,0.158,3.511,0.474,5.476c0.316,1.967,0.755,3.774,1.316,5.424c0.562,1.65,1.246,3.02,2.054,4.107
		c0.807,1.089,1.737,1.633,2.791,1.633c1.123,0,2.089-0.525,2.896-1.58c0.808-1.053,1.457-2.387,1.948-4.002
		c0.492-1.613,0.843-3.388,1.054-5.318c0.211-1.931,0.315-3.739,0.315-5.424c0-1.544-0.14-3.247-0.421-5.108
		c-0.281-1.86-0.685-3.598-1.211-5.212c-0.526-1.615-1.193-2.949-2.001-4.002C557.698,376.387,556.769,375.861,555.715,375.861"/>
	<path clip-path="url(#SVGID_2_)" fill="none" stroke="#231815" stroke-miterlimit="10" d="M554.662,423.463
		c-3.581,0-6.705-0.948-9.373-2.844s-4.915-4.318-6.74-7.266c-1.825-2.949-3.194-6.232-4.107-9.848
		c-0.912-3.616-1.369-7.179-1.369-10.689c0-3.722,0.457-7.566,1.369-11.533c0.913-3.966,2.317-7.582,4.213-10.847
		c1.896-3.264,4.317-5.932,7.267-8.004c2.948-2.071,6.459-3.106,10.531-3.106c3.932,0,7.284,1.07,10.058,3.212
		c2.773,2.141,5.002,4.809,6.688,8.004c1.685,3.194,2.878,6.687,3.58,10.478c0.702,3.792,0.948,7.372,0.737,10.742
		c-0.21,3.722-0.79,7.477-1.737,11.269c-0.948,3.791-2.336,7.197-4.16,10.215c-1.825,3.019-4.143,5.477-6.95,7.372
		S558.523,423.463,554.662,423.463z M555.715,375.861c-1.053,0-1.983,0.562-2.791,1.685c-0.807,1.123-1.474,2.492-2.001,4.107
		c-0.526,1.615-0.93,3.317-1.211,5.108c-0.28,1.79-0.421,3.353-0.421,4.686c0,1.686,0.158,3.511,0.474,5.476
		c0.316,1.967,0.755,3.774,1.316,5.424c0.562,1.65,1.246,3.02,2.054,4.107c0.807,1.089,1.737,1.633,2.791,1.633
		c1.123,0,2.089-0.525,2.896-1.58c0.808-1.053,1.457-2.387,1.948-4.002c0.492-1.613,0.843-3.388,1.054-5.318
		c0.211-1.931,0.315-3.739,0.315-5.424c0-1.544-0.14-3.247-0.421-5.108c-0.281-1.86-0.685-3.598-1.211-5.212
		c-0.526-1.615-1.193-2.949-2.001-4.002C557.698,376.387,556.769,375.861,555.715,375.861z"/>
	<path clip-path="url(#SVGID_2_)" fill="#FFFFFF" d="M615.489,423.357c-1.193,0-2.142-0.544-2.844-1.633
		c-0.702-1.088-1.229-2.334-1.579-3.738c-0.352-1.403-0.58-2.825-0.685-4.266c-0.105-1.439-0.158-2.545-0.158-3.317
		c0-2.106,0.123-4.212,0.368-6.317c0.246-2.107,0.527-4.213,0.843-6.32c0.316-2.106,0.597-4.212,0.843-6.318
		c0.245-2.107,0.368-4.212,0.368-6.319c0-0.843-0.035-1.755-0.105-2.738c-0.069-0.983-0.228-1.913-0.474-2.791
		s-0.649-1.597-1.211-2.159s-1.299-0.842-2.212-0.842c-0.631,0-1.334,0.508-2.106,1.527c-0.771,1.018-1.491,2.176-2.158,3.475
		c-0.667,1.299-1.229,2.598-1.686,3.897c-0.456,1.298-0.684,2.264-0.684,2.896c0,1.544,0.017,3.107,0.052,4.686
		c0.035,1.58,0.053,3.177,0.053,4.792v6.108c-0.07,1.265-0.176,2.563-0.315,3.897c-0.141,1.334-0.352,2.632-0.632,3.896
		c-0.211,1.265-0.527,2.476-0.948,3.634s-0.966,2.177-1.633,3.055c-0.667,0.877-1.456,1.597-2.369,2.159
		c-0.912,0.561-2,0.842-3.265,0.842c-1.404,0-2.562-0.457-3.476-1.369c-0.912-0.913-1.649-2.089-2.211-3.528
		c-0.562-1.438-0.965-3.054-1.211-4.845c-0.246-1.79-0.422-3.545-0.527-5.265c-0.105-1.721-0.14-3.301-0.105-4.74
		c0.035-1.438,0.053-2.58,0.053-3.421v-4.951c0-2.668-0.053-5.3-0.158-7.898c-0.104-2.598-0.157-5.195-0.157-7.794
		c0-1.403,0.019-3.194,0.053-5.37c0.035-2.177,0.299-4.3,0.789-6.372c0.492-2.071,1.3-3.844,2.423-5.318
		c1.123-1.475,2.773-2.212,4.949-2.212c0.983,0,1.86,0.316,2.633,0.948s1.457,1.404,2.054,2.317s1.089,1.896,1.475,2.949
		c0.386,1.053,0.685,1.966,0.896,2.738c0.702-0.983,1.526-1.931,2.475-2.844c0.947-0.912,2.019-1.72,3.212-2.422
		c1.193-0.702,2.527-1.264,4.002-1.685c1.476-0.421,3.159-0.632,5.055-0.632c3.581,0,6.372,0.86,8.373,2.581
		c2.001,1.719,3.476,3.861,4.423,6.424c0.948,2.562,1.527,5.318,1.737,8.267c0.211,2.948,0.316,5.616,0.316,8.004
		c0,1.193-0.105,2.966-0.316,5.318c-0.21,2.352-0.544,4.95-1,7.793c-0.456,2.844-1.069,5.757-1.843,8.742
		c-0.771,2.982-1.685,5.704-2.738,8.161c-1.054,2.458-2.3,4.459-3.737,6.003C618.947,422.586,617.314,423.357,615.489,423.357"/>
	<path clip-path="url(#SVGID_2_)" fill="none" stroke="#231815" stroke-miterlimit="10" d="M615.489,423.357
		c-1.193,0-2.142-0.544-2.844-1.633c-0.702-1.088-1.229-2.334-1.579-3.738c-0.352-1.403-0.58-2.825-0.685-4.266
		c-0.105-1.439-0.158-2.545-0.158-3.317c0-2.106,0.123-4.212,0.368-6.317c0.246-2.107,0.527-4.213,0.843-6.32
		c0.316-2.106,0.597-4.212,0.843-6.318c0.245-2.107,0.368-4.212,0.368-6.319c0-0.843-0.035-1.755-0.105-2.738
		c-0.069-0.983-0.228-1.913-0.474-2.791s-0.649-1.597-1.211-2.159s-1.299-0.842-2.212-0.842c-0.631,0-1.334,0.508-2.106,1.527
		c-0.771,1.018-1.491,2.176-2.158,3.475c-0.667,1.299-1.229,2.598-1.686,3.897c-0.456,1.298-0.684,2.264-0.684,2.896
		c0,1.544,0.017,3.107,0.052,4.686c0.035,1.58,0.053,3.177,0.053,4.792v6.108c-0.07,1.265-0.176,2.563-0.315,3.897
		c-0.141,1.334-0.352,2.632-0.632,3.896c-0.211,1.265-0.527,2.476-0.948,3.634s-0.966,2.177-1.633,3.055
		c-0.667,0.877-1.456,1.597-2.369,2.159c-0.912,0.561-2,0.842-3.265,0.842c-1.404,0-2.562-0.457-3.476-1.369
		c-0.912-0.913-1.649-2.089-2.211-3.528c-0.562-1.438-0.965-3.054-1.211-4.845c-0.246-1.79-0.422-3.545-0.527-5.265
		c-0.105-1.721-0.14-3.301-0.105-4.74c0.035-1.438,0.053-2.58,0.053-3.421v-4.951c0-2.668-0.053-5.3-0.158-7.898
		c-0.104-2.598-0.157-5.195-0.157-7.794c0-1.403,0.019-3.194,0.053-5.37c0.035-2.177,0.299-4.3,0.789-6.372
		c0.492-2.071,1.3-3.844,2.423-5.318c1.123-1.475,2.773-2.212,4.949-2.212c0.983,0,1.86,0.316,2.633,0.948s1.457,1.404,2.054,2.317
		s1.089,1.896,1.475,2.949c0.386,1.053,0.685,1.966,0.896,2.738c0.702-0.983,1.526-1.931,2.475-2.844
		c0.947-0.912,2.019-1.72,3.212-2.422c1.193-0.702,2.527-1.264,4.002-1.685c1.476-0.421,3.159-0.632,5.055-0.632
		c3.581,0,6.372,0.86,8.373,2.581c2.001,1.719,3.476,3.861,4.423,6.424c0.948,2.562,1.527,5.318,1.737,8.267
		c0.211,2.948,0.316,5.616,0.316,8.004c0,1.193-0.105,2.966-0.316,5.318c-0.21,2.352-0.544,4.95-1,7.793
		c-0.456,2.844-1.069,5.757-1.843,8.742c-0.771,2.982-1.685,5.704-2.738,8.161c-1.054,2.458-2.3,4.459-3.737,6.003
		C618.947,422.586,617.314,423.357,615.489,423.357z"/>
	<path clip-path="url(#SVGID_2_)" fill="#FFFFFF" d="M262.658,370.003c-6.853-31.607-48.624-38.389-71.858-21.093
		c-26.165,19.477-22.18,57.7-7.861,83.131c0.566,1.005,1.156,1.996,1.778,2.967c3.5,5.458,9.086,12.264,15.589,14.181
		c6.017,1.772,11.315-3.17,11.45-9.11c0.094-4.357-1.543-8.378-1.886-12.545c1.001,0.013,2.027,0.033,3.042-0.094
		c15.417-1.924,30.074-5.585,40.329-18.093C262.174,398.453,265.64,383.756,262.658,370.003 M241.128,384.218
		c-1.086,13.452-13.588,27.583-31.133,24.185c-16.923-3.283-18.889-18.759-17.114-29.098c1.749-10.318,8.673-20.147,24.665-21.33
		C234.059,356.746,242.221,370.749,241.128,384.218"/>
	<path clip-path="url(#SVGID_2_)" fill="none" stroke="#231815" stroke-miterlimit="10" d="M262.658,370.003
		c-6.853-31.607-48.624-38.389-71.858-21.093c-26.165,19.477-22.18,57.7-7.861,83.131c0.566,1.005,1.156,1.996,1.778,2.967
		c3.5,5.458,9.086,12.264,15.589,14.181c6.017,1.772,11.315-3.17,11.45-9.11c0.094-4.357-1.543-8.378-1.886-12.545
		c1.001,0.013,2.027,0.033,3.042-0.094c15.417-1.924,30.074-5.585,40.329-18.093C262.174,398.453,265.64,383.756,262.658,370.003z
		 M241.128,384.218c-1.086,13.452-13.588,27.583-31.133,24.185c-16.923-3.283-18.889-18.759-17.114-29.098
		c1.749-10.318,8.673-20.147,24.665-21.33C234.059,356.746,242.221,370.749,241.128,384.218z"/>
	<path clip-path="url(#SVGID_2_)" fill="#FFFFFF" d="M228.562,373.933c4.494,0.821,7.341,5.876,7.273,9.796
		c-0.081,4.459-3.139,9.272-7.273,10.661c-4.133,1.407-7.767,0.661-10.494-3.31c-2.732-3.965-2.44-9.417-0.415-12.434
		C219.684,375.625,224.083,373.112,228.562,373.933"/>
	<path clip-path="url(#SVGID_2_)" fill="none" stroke="#231815" stroke-miterlimit="10" d="M228.562,373.933
		c4.494,0.821,7.341,5.876,7.273,9.796c-0.081,4.459-3.139,9.272-7.273,10.661c-4.133,1.407-7.767,0.661-10.494-3.31
		c-2.732-3.965-2.44-9.417-0.415-12.434C219.684,375.625,224.083,373.112,228.562,373.933z"/>
	<path clip-path="url(#SVGID_2_)" fill="#221714" d="M286.028,226.585v3.107c0,1.088-0.035,2.123-0.105,3.106
		c-0.07,1.194-0.105,2.791-0.105,4.792s-0.071,4.16-0.211,6.477c-0.141,2.317-0.369,4.669-0.684,7.056
		c-0.316,2.387-0.826,4.564-1.528,6.529c-0.702,1.966-1.632,3.564-2.79,4.792c-1.159,1.229-2.616,1.878-4.371,1.949
		c-1.334,0.07-2.457-0.456-3.37-1.581c-0.913-1.123-1.668-2.58-2.264-4.37c-0.597-1.79-1.036-3.791-1.317-6.003
		c-0.28-2.212-0.491-4.352-0.631-6.423c-0.141-2.072-0.211-3.985-0.211-5.74v-3.897v-4.792c0-2.071,0.07-4.3,0.211-6.687
		c0.14-2.387,0.403-4.809,0.789-7.267c0.386-2.457,0.948-4.704,1.685-6.739c0.737-2.037,1.703-3.687,2.897-4.951
		c1.193-1.263,2.702-1.895,4.528-1.895c1.895,0,3.335,0.948,4.318,2.844c0.983,1.895,1.72,4.106,2.211,6.634
		c0.492,2.528,0.773,5.037,0.843,7.53C285.993,223.548,286.028,225.392,286.028,226.585"/>
	<path clip-path="url(#SVGID_2_)" fill="#3695D3" d="M285.186,190.778c0,0.983-0.263,1.861-0.79,2.633
		c-0.526,0.772-1.211,1.457-2.054,2.054c-0.842,0.596-1.755,1.053-2.738,1.369c-0.982,0.316-1.896,0.474-2.738,0.474
		c-1.404,0-2.633-0.351-3.686-1.053c-1.053-0.703-1.579-1.791-1.579-3.265c0-1.053,0.263-1.983,0.789-2.791
		c0.527-0.808,1.176-1.475,1.949-2.001c0.772-0.526,1.65-0.93,2.633-1.211s1.93-0.421,2.843-0.421c1.334,0,2.562,0.316,3.686,0.947
		C284.624,188.146,285.186,189.234,285.186,190.778"/>
	<path clip-path="url(#SVGID_2_)" fill="#221714" d="M341.721,209.945c0,1.124-0.211,2.299-0.632,3.528s-0.948,2.475-1.579,3.739
		c-0.632,1.264-1.299,2.475-2.001,3.633c-0.703,1.159-1.334,2.229-1.896,3.212c-1.404,2.247-2.791,4.529-4.16,6.845
		c-1.369,2.317-2.755,4.599-4.16,6.846c0.632,0.983,1.509,2.352,2.633,4.107c1.124,1.755,2.229,3.599,3.317,5.53
		c1.089,1.93,2.019,3.843,2.791,5.739c0.772,1.895,1.159,3.511,1.159,4.844c0,1.264-0.492,2.493-1.475,3.686s-2.176,1.79-3.58,1.79
		c-1.475,0-2.967-0.526-4.476-1.579c-1.51-1.054-2.984-2.3-4.423-3.739c-1.44-1.439-2.756-2.949-3.95-4.529
		c-1.193-1.579-2.211-2.895-3.054-3.949c-0.912,0.983-2.089,2.318-3.528,4.002c-1.439,1.686-2.984,3.335-4.633,4.95
		c-1.65,1.615-3.283,3.001-4.897,4.16c-1.616,1.159-3.055,1.738-4.318,1.738c-1.475,0-2.633-0.527-3.476-1.58
		c-0.842-1.053-1.264-2.282-1.264-3.686c0-1.404,0.475-3.194,1.422-5.371c0.948-2.177,2.071-4.423,3.37-6.74
		c1.299-2.317,2.598-4.529,3.897-6.635c1.299-2.106,2.299-3.756,3.001-4.95c-0.702-1.263-1.58-2.931-2.632-5.002
		c-1.054-2.071-2.054-4.248-3.002-6.529c-0.948-2.282-1.755-4.529-2.422-6.741c-0.667-2.211-1.001-4.054-1.001-5.529
		c0-1.614,0.492-2.913,1.474-3.896c0.984-0.983,2.283-1.475,3.897-1.475c1.756,0,3.405,0.685,4.95,2.054
		c1.544,1.369,2.984,3.019,4.318,4.95c1.334,1.931,2.51,3.931,3.528,6.003c1.018,2.071,1.843,3.774,2.475,5.108
		c0.842-1.264,2.018-2.984,3.528-5.161c1.509-2.176,3.212-4.318,5.108-6.424c1.895-2.106,3.861-3.932,5.897-5.476
		c2.036-1.545,3.967-2.317,5.792-2.317c1.194,0,2.159,0.509,2.897,1.527C341.353,207.646,341.721,208.752,341.721,209.945"/>
	<path clip-path="url(#SVGID_2_)" fill="#221714" d="M366.336,226.585v3.107c0,1.088-0.037,2.123-0.105,3.106
		c-0.07,1.194-0.105,2.791-0.105,4.792s-0.071,4.16-0.211,6.477c-0.142,2.317-0.368,4.669-0.684,7.056
		c-0.316,2.387-0.828,4.564-1.528,6.529c-0.701,1.966-1.632,3.564-2.79,4.792c-1.159,1.229-2.618,1.878-4.371,1.949
		c-1.334,0.07-2.459-0.456-3.37-1.581c-0.913-1.123-1.669-2.58-2.264-4.37c-0.597-1.79-1.038-3.791-1.317-6.003
		c-0.28-2.212-0.491-4.352-0.631-6.423c-0.143-2.072-0.211-3.985-0.211-5.74v-3.897v-4.792c0-2.071,0.068-4.3,0.211-6.687
		c0.14-2.387,0.403-4.809,0.79-7.267c0.383-2.457,0.947-4.704,1.685-6.739c0.737-2.037,1.7-3.687,2.896-4.951
		c1.193-1.263,2.7-1.895,4.528-1.895c1.896,0,3.332,0.948,4.318,2.844c0.983,1.895,1.72,4.106,2.211,6.634
		c0.49,2.528,0.773,5.037,0.843,7.53C366.299,223.548,366.336,225.392,366.336,226.585"/>
	<path clip-path="url(#SVGID_2_)" fill="#49B796" d="M365.494,190.778c0,0.983-0.263,1.861-0.79,2.633
		c-0.526,0.772-1.211,1.457-2.053,2.054c-0.843,0.596-1.756,1.053-2.739,1.369c-0.985,0.316-1.895,0.474-2.738,0.474
		c-1.406,0-2.633-0.351-3.686-1.053c-1.053-0.703-1.58-1.791-1.58-3.265c0-1.053,0.264-1.983,0.79-2.791
		c0.527-0.808,1.174-1.475,1.949-2.001c0.772-0.526,1.647-0.93,2.633-1.211c0.982-0.281,1.93-0.421,2.843-0.421
		c1.332,0,2.562,0.316,3.686,0.947C364.93,188.146,365.494,189.234,365.494,190.778"/>
	<path clip-path="url(#SVGID_2_)" fill="#221714" d="M427.271,194.57c0,2.527-0.316,5.353-0.948,8.478
		c-0.632,3.124-1.422,6.301-2.369,9.53c-0.949,3.23-1.966,6.372-3.055,9.426c-1.09,3.054-2.054,5.81-2.896,8.267
		c-0.564,1.545-1.176,3.458-1.843,5.74c-0.669,2.282-1.44,4.687-2.317,7.214c-0.88,2.527-1.843,5.055-2.896,7.583
		c-1.053,2.527-2.211,4.791-3.476,6.792c-1.264,2.001-2.65,3.634-4.159,4.897c-1.512,1.264-3.144,1.896-4.898,1.896
		c-1.474,0-2.896-0.667-4.265-2.001c-1.369-1.334-2.67-3.036-3.896-5.108c-1.229-2.071-2.387-4.388-3.476-6.951
		c-1.09-2.562-2.071-5.072-2.948-7.529c-0.88-2.458-1.617-4.739-2.212-6.846c-0.596-2.106-1.037-3.721-1.316-4.844
		c-1.406-5.477-2.738-11.005-4.002-16.587c-1.264-5.582-1.896-11.181-1.896-16.798c0-1.404,0.068-2.861,0.211-4.37
		c0.14-1.51,0.489-2.896,1.053-4.16c0.561-1.264,1.351-2.299,2.37-3.107c1.015-0.807,2.437-1.211,4.265-1.211
		c1.542,0,2.964,0.86,4.265,2.58c1.299,1.72,2.475,3.949,3.528,6.688c1.053,2.738,2.016,5.792,2.896,9.162
		c0.878,3.37,1.7,6.687,2.475,9.952c0.772,3.265,1.51,6.319,2.211,9.162c0.7,2.844,1.404,5.108,2.107,6.793
		c0.421-1.404,1.036-3.458,1.842-6.161c0.806-2.703,1.753-5.669,2.844-8.899c1.088-3.23,2.28-6.547,3.581-9.952
		c1.299-3.405,2.668-6.494,4.107-9.267c1.437-2.774,2.931-5.038,4.476-6.793c1.542-1.756,3.122-2.633,4.739-2.633
		c1.194,0,2.174,0.281,2.949,0.843c0.772,0.561,1.369,1.299,1.79,2.211c0.422,0.913,0.719,1.896,0.895,2.949
		C427.182,192.569,427.271,193.587,427.271,194.57"/>
	<path clip-path="url(#SVGID_2_)" fill="#221714" d="M451.491,226.585v3.107c0,1.088-0.037,2.123-0.104,3.106
		c-0.071,1.194-0.106,2.791-0.106,4.792s-0.07,4.16-0.211,6.477c-0.142,2.317-0.368,4.669-0.684,7.056
		c-0.316,2.387-0.827,4.564-1.527,6.529c-0.702,1.966-1.633,3.564-2.791,4.792c-1.158,1.229-2.617,1.878-4.37,1.949
		c-1.334,0.07-2.46-0.456-3.37-1.581c-0.913-1.123-1.67-2.58-2.265-4.37c-0.597-1.79-1.038-3.791-1.316-6.003
		c-0.281-2.212-0.491-4.352-0.632-6.423c-0.143-2.072-0.211-3.985-0.211-5.74v-3.897v-4.792c0-2.071,0.068-4.3,0.211-6.687
		c0.141-2.387,0.403-4.809,0.79-7.267c0.384-2.457,0.947-4.704,1.685-6.739c0.737-2.037,1.7-3.687,2.896-4.951
		c1.193-1.263,2.701-1.895,4.528-1.895c1.896,0,3.333,0.948,4.318,2.844c0.982,1.895,1.721,4.106,2.211,6.634
		c0.489,2.528,0.772,5.037,0.844,7.53C451.454,223.548,451.491,225.392,451.491,226.585"/>
	<path clip-path="url(#SVGID_2_)" fill="#EA5918" d="M450.648,190.778c0,0.983-0.264,1.861-0.79,2.633s-1.211,1.457-2.054,2.054
		c-0.841,0.596-1.755,1.053-2.738,1.369c-0.984,0.316-1.895,0.474-2.737,0.474c-1.407,0-2.633-0.351-3.687-1.053
		c-1.053-0.703-1.579-1.791-1.579-3.265c0-1.053,0.263-1.983,0.789-2.791c0.528-0.808,1.174-1.475,1.948-2.001
		c0.772-0.526,1.648-0.93,2.633-1.211s1.932-0.421,2.844-0.421c1.332,0,2.562,0.316,3.688,0.947
		C450.086,188.146,450.648,189.234,450.648,190.778"/>
	<path clip-path="url(#SVGID_2_)" fill="#221714" d="M494.894,206.365c0,2.036-0.685,3.546-2.054,4.529
		c-1.369,0.983-2.896,1.913-4.581,2.79c-1.686,0.878-3.212,1.913-4.581,3.107c-1.369,1.194-2.054,2.984-2.054,5.371
		c0,1.264,0.298,2.352,0.895,3.265c0.595,0.913,1.332,1.737,2.212,2.475c0.878,0.737,1.843,1.492,2.896,2.264
		c1.053,0.772,2.016,1.65,2.896,2.633c0.878,0.983,1.615,2.176,2.212,3.581c0.595,1.403,0.896,3.124,0.896,5.16
		c0,2.949-0.755,5.845-2.265,8.688c-1.512,2.844-3.44,5.371-5.792,7.583c-2.354,2.212-5.003,3.984-7.951,5.318
		c-2.949,1.334-5.862,2.001-8.741,2.001c-1.195,0-2.387-0.088-3.58-0.264c-1.196-0.174-2.265-0.508-3.213-1
		c-0.947-0.491-1.737-1.175-2.369-2.053c-0.632-0.878-0.948-2.019-0.948-3.423c0-1.966,0.387-3.493,1.159-4.581
		c0.774-1.088,1.753-1.948,2.948-2.58c1.193-0.632,2.475-1.123,3.844-1.475c1.369-0.35,2.649-0.79,3.845-1.316
		c1.193-0.527,2.174-1.211,2.948-2.054c0.772-0.843,1.158-2.036,1.158-3.58c0-1.475-0.579-3.002-1.737-4.582
		c-1.158-1.579-2.438-3.264-3.844-5.055c-1.406-1.79-2.686-3.703-3.844-5.739c-1.159-2.036-1.738-4.283-1.738-6.74
		c0-3.019,0.614-5.81,1.843-8.373c1.227-2.562,2.879-4.791,4.95-6.687c2.069-1.896,4.439-3.388,7.108-4.476
		c2.668-1.088,5.477-1.632,8.425-1.632c1.122,0,2.228,0.105,3.317,0.316c1.09,0.21,2.054,0.579,2.896,1.106
		c0.843,0.526,1.528,1.228,2.054,2.106C494.63,203.926,494.894,205.031,494.894,206.365"/>
	<path clip-path="url(#SVGID_2_)" fill="#221714" d="M520.991,226.585v3.107c0,1.088-0.035,2.123-0.106,3.106
		c-0.069,1.194-0.104,2.791-0.104,4.792s-0.07,4.16-0.211,6.477s-0.369,4.669-0.686,7.056c-0.315,2.387-0.824,4.564-1.526,6.529
		c-0.702,1.966-1.632,3.564-2.791,4.792c-1.158,1.229-2.615,1.878-4.37,1.949c-1.334,0.07-2.457-0.456-3.37-1.581
		c-0.913-1.123-1.667-2.58-2.265-4.37c-0.597-1.79-1.035-3.791-1.316-6.003c-0.28-2.212-0.491-4.352-0.632-6.423
		c-0.14-2.072-0.21-3.985-0.21-5.74v-3.897v-4.792c0-2.071,0.07-4.3,0.21-6.687c0.141-2.387,0.404-4.809,0.79-7.267
		c0.387-2.457,0.948-4.704,1.686-6.739c0.737-2.037,1.702-3.687,2.896-4.951c1.194-1.263,2.703-1.895,4.528-1.895
		c1.896,0,3.335,0.948,4.318,2.844c0.982,1.895,1.721,4.106,2.212,6.634c0.491,2.528,0.771,5.037,0.841,7.53
		C520.956,223.548,520.991,225.392,520.991,226.585"/>
	<path clip-path="url(#SVGID_2_)" fill="#E6E63A" d="M520.148,190.778c0,0.983-0.263,1.861-0.789,2.633
		c-0.527,0.772-1.212,1.457-2.054,2.054c-0.842,0.596-1.756,1.053-2.738,1.369c-0.983,0.316-1.896,0.474-2.738,0.474
		c-1.404,0-2.633-0.351-3.686-1.053c-1.054-0.703-1.58-1.791-1.58-3.265c0-1.053,0.264-1.983,0.79-2.791
		c0.527-0.808,1.176-1.475,1.948-2.001s1.649-0.93,2.633-1.211s1.931-0.421,2.844-0.421c1.334,0,2.562,0.316,3.686,0.947
		C519.587,188.146,520.148,189.234,520.148,190.778"/>
	<path clip-path="url(#SVGID_2_)" fill="#221714" d="M551.822,267.342c-3.581,0-6.705-0.948-9.373-2.844
		c-2.668-1.895-4.915-4.318-6.74-7.266c-1.825-2.949-3.194-6.232-4.106-9.847c-0.913-3.616-1.37-7.179-1.37-10.689
		c0-3.722,0.457-7.566,1.37-11.533c0.912-3.966,2.316-7.582,4.212-10.847c1.896-3.264,4.317-5.932,7.267-8.004
		c2.948-2.071,6.459-3.106,10.531-3.106c3.932,0,7.284,1.07,10.058,3.212c2.773,2.141,5.002,4.809,6.688,8.004
		c1.685,3.194,2.878,6.687,3.58,10.478c0.702,3.792,0.948,7.372,0.737,10.742c-0.21,3.722-0.79,7.477-1.737,11.269
		c-0.948,3.791-2.335,7.197-4.16,10.215c-1.825,3.019-4.143,5.477-6.95,7.372C559.02,266.394,555.684,267.342,551.822,267.342
		 M552.875,219.74c-1.053,0-1.982,0.562-2.791,1.685c-0.807,1.123-1.474,2.492-2.001,4.107c-0.526,1.615-0.93,3.317-1.211,5.108
		c-0.28,1.79-0.421,3.353-0.421,4.686c0,1.685,0.158,3.511,0.474,5.476c0.316,1.967,0.755,3.774,1.316,5.424
		s1.246,3.019,2.054,4.107c0.808,1.089,1.737,1.633,2.791,1.633c1.123,0,2.089-0.526,2.896-1.58
		c0.808-1.053,1.457-2.387,1.948-4.002c0.492-1.614,0.843-3.388,1.054-5.318c0.211-1.931,0.315-3.739,0.315-5.424
		c0-1.545-0.14-3.247-0.421-5.108c-0.281-1.86-0.685-3.598-1.211-5.212c-0.526-1.615-1.192-2.949-2.001-4.002
		C554.858,220.266,553.929,219.74,552.875,219.74"/>
	<path clip-path="url(#SVGID_2_)" fill="#221714" d="M612.649,267.236c-1.193,0-2.142-0.544-2.844-1.633
		c-0.702-1.088-1.229-2.334-1.579-3.738c-0.352-1.404-0.58-2.826-0.685-4.266c-0.105-1.439-0.158-2.545-0.158-3.317
		c0-2.107,0.123-4.212,0.368-6.318c0.246-2.107,0.527-4.213,0.843-6.32c0.316-2.106,0.597-4.212,0.843-6.318
		c0.245-2.107,0.368-4.213,0.368-6.319c0-0.843-0.035-1.755-0.105-2.738c-0.069-0.983-0.228-1.913-0.474-2.791
		c-0.246-0.878-0.649-1.597-1.211-2.159s-1.299-0.842-2.212-0.842c-0.631,0-1.334,0.508-2.106,1.527
		c-0.771,1.018-1.491,2.176-2.158,3.475c-0.667,1.299-1.229,2.598-1.686,3.897c-0.456,1.298-0.684,2.264-0.684,2.896
		c0,1.544,0.017,3.107,0.052,4.686c0.035,1.58,0.053,3.177,0.053,4.792v6.108c-0.07,1.264-0.176,2.563-0.315,3.897
		c-0.141,1.334-0.352,2.632-0.632,3.896c-0.211,1.264-0.527,2.475-0.947,3.634c-0.422,1.158-0.967,2.176-1.634,3.054
		c-0.667,0.877-1.456,1.597-2.369,2.159c-0.912,0.561-2,0.842-3.265,0.842c-1.404,0-2.562-0.457-3.476-1.369
		c-0.912-0.913-1.649-2.089-2.211-3.528c-0.562-1.439-0.965-3.054-1.211-4.845c-0.246-1.79-0.422-3.545-0.527-5.265
		c-0.105-1.72-0.14-3.3-0.105-4.74c0.035-1.438,0.053-2.58,0.053-3.421v-4.951c0-2.668-0.053-5.3-0.158-7.898
		c-0.104-2.598-0.157-5.195-0.157-7.794c0-1.403,0.019-3.194,0.053-5.37c0.035-2.177,0.299-4.3,0.789-6.372
		c0.492-2.071,1.3-3.844,2.423-5.318c1.123-1.475,2.773-2.212,4.949-2.212c0.983,0,1.86,0.316,2.633,0.948
		c0.772,0.632,1.457,1.404,2.054,2.317s1.089,1.896,1.475,2.949c0.386,1.053,0.686,1.966,0.896,2.738
		c0.702-0.983,1.526-1.931,2.475-2.844c0.947-0.912,2.019-1.72,3.212-2.422s2.527-1.264,4.002-1.685
		c1.476-0.421,3.159-0.632,5.055-0.632c3.581,0,6.372,0.86,8.373,2.581c2.001,1.719,3.476,3.861,4.424,6.424
		c0.947,2.562,1.526,5.318,1.736,8.267c0.211,2.948,0.316,5.616,0.316,8.004c0,1.193-0.105,2.966-0.316,5.318
		c-0.21,2.352-0.544,4.95-1,7.793c-0.456,2.844-1.069,5.757-1.843,8.742c-0.771,2.983-1.685,5.704-2.738,8.161
		c-1.054,2.458-2.3,4.459-3.737,6.003C616.107,266.464,614.475,267.236,612.649,267.236"/>
	<path clip-path="url(#SVGID_2_)" fill="#FFFFFF" d="M149.217,30.377C142.364-1.23,100.593-8.012,77.358,9.284
		c-26.165,19.477-22.18,57.7-7.861,83.131c0.566,1.005,1.156,1.996,1.778,2.967c3.5,5.458,9.086,12.263,15.589,14.18
		c6.017,1.773,11.315-3.17,11.45-9.11c0.094-4.357-1.543-8.378-1.886-12.545c1.001,0.013,2.027,0.033,3.042-0.094
		c15.417-1.923,30.074-5.585,40.329-18.092C148.732,58.827,152.199,44.13,149.217,30.377 M127.687,44.592
		c-1.086,13.452-13.588,27.583-31.133,24.185C79.63,65.494,77.665,50.018,79.439,39.679c1.749-10.318,8.673-20.147,24.665-21.33
		C120.618,17.12,128.78,31.123,127.687,44.592"/>
	<path clip-path="url(#SVGID_2_)" fill="#231815" d="M259.818,213.882c-6.853-31.607-48.624-38.389-71.858-21.093
		c-26.165,19.477-22.18,57.7-7.861,83.131c0.566,1.005,1.156,1.996,1.778,2.967c3.5,5.458,9.086,12.263,15.589,14.18
		c6.017,1.773,11.315-3.17,11.45-9.11c0.094-4.357-1.543-8.378-1.886-12.545c1.001,0.013,2.027,0.033,3.042-0.094
		c15.417-1.923,30.074-5.585,40.329-18.092C259.334,242.332,262.8,227.635,259.818,213.882 M238.288,228.097
		c-1.086,13.452-13.588,27.583-31.133,24.185c-16.923-3.283-18.889-18.759-17.114-29.098c1.749-10.318,8.673-20.147,24.665-21.33
		C231.219,200.625,239.381,214.628,238.288,228.097"/>
	<path clip-path="url(#SVGID_2_)" fill="#221714" d="M225.723,217.811c4.494,0.821,7.341,5.876,7.273,9.796
		c-0.081,4.459-3.139,9.272-7.273,10.661c-4.133,1.407-7.767,0.661-10.494-3.31c-2.732-3.965-2.44-9.417-0.415-12.434
		C216.844,219.503,221.243,216.991,225.723,217.811"/>
</g>
<rect id="_x3C_スライス_x3E__2_" x="167" y="182.317" fill="none" width="461.5" height="112"/>
</svg>
